PathFileType	4	(X/Y/Z)	W16_1_OpenSim.trc																																																																																																																						
DataRate	CameraRate	NumFrames	NumMarkers	Units	OrigDataRate	OrigDataStartFrame	OrigNumFrames																																																																																																																		
100	100	8	40	mm	100	2251	3000																																																																																																																		
Frame#	Time	R.ASIS			R.PSIS			S2			L.PSIS			L.ASIS			R.TH1			R.TH2			R.TH3			R.MKnee			R.Knee			R.SH1			R.SH2			R.SH3			R.SH4			R.Ankle			R.MAnkle			R.Heel			R.MT5			R.MT1			L.TH1			L.TH2			L.TH3			L.TH4			L.MKnee			L.Knee			L.SH1			L.SH2			L.SH3			L.Ankle			L.MAnkle			L.Heel			L.MT5			L.MT1			R.Acr			L.Acr			C7			T10			Clav			Sternum			R.Back		
		X1	Y1	Z1	X2	Y2	Z2	X3	Y3	Z3	X4	Y4	Z4	X5	Y5	Z5	X6	Y6	Z6	X7	Y7	Z7	X8	Y8	Z8	X9	Y9	Z9	X10	Y10	Z10	X11	Y11	Z11	X12	Y12	Z12	X13	Y13	Z13	X14	Y14	Z14	X15	Y15	Z15	X16	Y16	Z16	X17	Y17	Z17	X18	Y18	Z18	X19	Y19	Z19	X20	Y20	Z20	X21	Y21	Z21	X22	Y22	Z22	X23	Y23	Z23	X24	Y24	Z24	X25	Y25	Z25	X26	Y26	Z26	X27	Y27	Z27	X28	Y28	Z28	X29	Y29	Z29	X30	Y30	Z30	X31	Y31	Z31	X32	Y32	Z32	X33	Y33	Z33	X34	Y34	Z34	X35	Y35	Z35	X36	Y36	Z36	X37	Y37	Z37	X38	Y38	Z38	X39	Y39	Z39	X40	Y40	Z40
2251	22.5	964.5903	1051.5818	-390.5741	770.6632	1056.7649	-484.1977	763.8381	1050.0681	-529.2816	764.6661	1053.255	-579.2451	939.3282	1043.8801	-686.4029	911.3862	718.7509	-377.2653	831.1008	725.4254	-362.1514	820.8383	616.5701	-379.5319	823.9808	496.0725	-512.5716	826.4714	495.8289	-395.5995	789.0232	330.5348	-397.7926	758.5992	224.3844	-420.9718	709.9761	351.5114	-382.5423	683.7839	241.7425	-397.9648	652.3484	86.7231	-414.9479	690.1384	99.4461	-509.6321	588.9098	51.9871	-471.7903	761.026	37.5498	-385.3449	808.1523	38.5812	-474.861	1016.5143	785.3733	-707.9082	1056.8495	684.3138	-704.614	940.8613	751.1952	-717.6493	983.6259	650.7589	-707.2735	1103.1605	529.6051	-588.1494	1089.8162	538.5427	-700.4176	1116.0338	411.1007	-724.3907	1035.3279	401.4416	-720.2977	1051.1453	293.4386	-718.2856	1138.7156	97.7704	-730.6932	1169.0803	112.1212	-633.9737	1085.3252	45.6087	-674.153	1253.9944	70.4088	-748.7344	1290.9582	91.0775	-649.7269	953.8497	1453.5981	-387.8146	888.9007	1443.4518	-697.7116	878.505	1490.5123	-539.161	807.1343	1164.5023	-527.2548	999.522	1377.1453	-554.4742	1013.6117	1236.3552	-545.2648	797.121	1403.6867	-439.8886
2252	22.51	964.5906	1048.9052	-391.3071	771.3884	1054.9141	-485.6606	764.7022	1048.2433	-530.7885	765.8783	1051.3582	-580.7195	940.6282	1041.0295	-687.0429	906.7205	716.7095	-377.9374	826.6968	724.7658	-362.464	814.4111	616.1489	-379.9764	814.977	495.5321	-512.9293	817.4194	495.2039	-395.9896	777.3348	330.4444	-397.9586	745.3785	224.6945	-421.054	698.4674	352.6793	-382.9163	670.7895	243.2376	-398.3244	637.1705	88.2523	-415.0238	675.2295	100.6332	-509.7037	573.4235	54.3596	-471.9647	745.1658	37.6153	-385.3576	792.3358	38.6053	-474.9396	1015.3669	780.4254	-707.9185	1054.5977	678.9351	-704.2239	939.4308	747.0192	-718.137	981.0403	646.1705	-707.2936	1099.1564	524.5809	-587.3601	1087.3709	533.9988	-699.4938	1119.9507	409.3632	-724.571	1039.8002	394.8164	-720.3721	1062.0995	287.8576	-718.5018	1162.937	96.9102	-730.9498	1191.8877	113.058	-634.4432	1112.9287	40.837	-674.9291	1279.829	77.9701	-749.4825	1315.2009	100.85	-650.3652	954.2677	1451.4259	-389.0467	889.0051	1440.8081	-698.9189	878.717	1488.0585	-540.3184	807.6276	1162.0388	-528.3337	999.9067	1374.7843	-555.5586	1014.1685	1233.9646	-546.1103	797.4922	1401.2726	-440.8173
2253	22.52	964.6308	1046.0785	-392.1067	772.1954	1052.8175	-487.351	765.6116	1046.1757	-532.5198	767.2233	1049.243	-582.4232	942.1166	1038.1045	-687.7787	902.5134	714.5671	-378.6861	822.767	723.9406	-362.9685	808.5268	615.597	-380.5785	806.6487	494.914	-513.4092	809.045	494.5077	-396.5111	766.1279	330.3673	-398.2049	732.499	225.0814	-421.1423	687.5177	353.9541	-383.32	658.1832	244.9152	-398.6665	622.1406	90.0009	-415.044	660.4443	102.0648	-509.6918	557.9763	57.1254	-472.0586	729.3535	37.6828	-385.3367	776.5243	38.574	-475.0095	1014.7064	775.5017	-708.0316	1052.8176	673.5959	-703.9556	938.4985	742.8822	-718.9419	978.9603	641.6141	-707.6461	1095.3158	519.6674	-586.6621	1085.1837	529.5092	-698.6949	1123.0245	407.5526	-724.739	1043.6091	388.6619	-720.0829	1071.6785	282.9134	-718.1237	1184.2966	96.7162	-730.4218	1212.0515	114.8078	-634.2394	1137.6978	37.4151	-674.5986	1302.2355	85.5826	-749.6319	1336.1969	110.7865	-650.5699	954.7772	1449.1451	-390.3805	889.2052	1438.1321	-700.2294	878.99	1485.5092	-541.559	808.2376	1159.4547	-529.5063	1000.3721	1372.3518	-556.7455	1014.8016	1231.511	-547.115	797.9478	1398.7618	-441.855
2254	22.53	964.7261	1043.1418	-392.9683	773.0715	1050.4927	-489.2703	766.525	1043.8871	-534.4719	768.6677	1046.9481	-584.3579	943.774	1035.1719	-688.6372	898.8291	712.3515	-379.5167	819.3602	722.9528	-363.6909	803.2789	614.8985	-381.3344	799.1681	494.1748	-514.0014	801.4851	493.7198	-397.1517	755.5121	330.2994	-398.509	720.0317	225.5671	-421.2256	677.2446	355.3609	-383.7502	646.0449	246.8213	-398.9811	607.3127	92.0118	-414.9763	645.8381	103.7919	-509.562	542.5948	60.3841	-472.0331	713.6139	37.737	-385.2684	760.7217	38.4654	-475.0612	1014.7107	770.8729	-708.2615	1051.7721	668.6011	-703.7742	938.2639	738.9863	-720.016	977.6666	637.3326	-708.2478	1092.0216	515.1887	-586.0497	1083.4939	525.3155	-698.0081	1125.3511	405.6092	-724.8026	1046.7451	383.069	-719.372	1079.6971	278.554	-717.086	1202.2068	96.7698	-729.0582	1229.0966	116.9152	-633.2914	1158.8791	35.0154	-673.0429	1320.7222	92.4484	-749.1453	1353.5696	120.076	-650.3388	955.363	1446.7957	-391.8213	889.498	1435.4451	-701.6464	879.3179	1482.9033	-542.8897	808.9697	1156.7874	-530.7712	1000.9108	1369.8765	-558.038	1015.4966	1229.0171	-548.2745	798.4776	1396.1898	-443.0073
2255	22.54	964.9091	1040.1451	-393.9002	774.0208	1047.9769	-491.4092	767.4211	1041.42	-536.6312	770.191	1044.5298	-586.5138	945.5831	1032.3114	-689.6521	895.7288	710.1006	-380.4376	816.5134	721.817	-364.6499	798.7606	614.0449	-382.2461	792.7092	493.2691	-514.686	794.8791	492.8253	-397.8862	745.5929	330.2494	-398.8359	708.0516	226.1844	-421.2736	667.7649	356.9357	-384.2057	634.4612	249.0132	-399.2507	592.7506	94.3376	-414.7778	631.4863	105.8642	-509.2726	527.3239	64.2576	-471.8485	697.9711	37.7581	-385.1406	744.9312	38.2654	-475.087	1015.5039	766.7786	-708.6127	1051.6626	664.2167	-703.6267	938.8672	735.5016	-721.2539	977.3683	633.5377	-708.9516	1089.6473	511.4298	-585.5026	1082.5129	521.6207	-697.3808	1127.1061	403.4905	-724.6432	1049.2639	378.1301	-718.2114	1086.0437	274.7241	-715.3842	1216.2098	96.6647	-726.8794	1242.6246	118.8671	-631.5777	1175.7959	33.2819	-670.3029	1334.9395	97.8086	-748.0173	1367.0588	127.8488	-649.6576	956.0037	1444.4174	-393.3723	889.8799	1432.7727	-703.1732	879.6949	1480.2885	-544.3193	809.8311	1154.0795	-532.132	1001.5144	1367.3966	-559.4395	1016.2573	1226.5133	-549.576	799.0687	1393.5944	-444.2817
2256	22.55	965.2225	1037.144	-394.9255	775.0672	1045.3269	-493.7454	768.3127	1038.8362	-538.9737	771.7925	1042.0563	-588.8665	947.5309	1029.616	-690.8595	893.2766	707.8554	-381.4592	814.2622	720.5511	-365.8558	795.0697	613.0284	-383.3155	787.4429	492.1499	-515.4341	789.3715	491.8138	-398.6789	736.4738	330.2388	-399.1416	696.6466	226.9731	-421.2345	659.1998	358.7197	-384.6863	623.5289	251.5532	-399.4535	578.5347	97.0384	-414.4047	617.4872	108.3242	-508.7786	512.2406	68.8828	-471.4723	682.4484	37.7255	-384.9443	729.1556	37.9661	-475.0811	1017.1316	763.3873	-709.0841	1052.5914	660.6286	-703.4597	940.3637	732.543	-722.5236	978.169	630.3767	-709.5864	1088.4894	508.5959	-584.9905	1082.3943	518.5584	-696.7302	1128.5111	401.1872	-724.134	1051.2754	373.931	-716.6161	1090.6964	271.3779	-713.0837	1226.0377	96.0981	-723.9885	1252.37	120.1563	-629.1301	1187.9265	31.9053	-666.6003	1344.7246	101.0653	-746.2656	1376.5588	133.2665	-648.4753	956.6731	1442.0515	-395.0338	890.3453	1430.1511	-704.8148	880.1132	1477.7175	-545.8572	810.8317	1151.3777	-533.5972	1002.1735	1364.96	-560.9537	1017.1001	1224.0425	-551.0052	799.7061	1391.0127	-445.6881
2257	22.56	965.7163	1034.1973	-396.0798	776.2459	1042.6183	-496.2415	769.2532	1036.2154	-541.4649	773.4914	1039.6027	-591.3774	949.6101	1027.1851	-692.2908	891.5439	705.6514	-382.5917	812.6546	719.1652	-367.3123	792.3132	611.8346	-384.5356	783.5364	490.7689	-516.2069	785.1126	490.6758	-399.4847	728.2678	330.2955	-399.3748	685.9286	227.9752	-421.04	651.6815	360.7532	-385.1909	613.3645	254.5022	-399.5673	564.7686	100.1812	-413.8203	603.9684	111.2012	-508.0352	497.478	74.3973	-470.8857	667.0684	37.6236	-384.6762	713.4015	37.5648	-475.0403	1019.551	760.7698	-709.677	1054.5393	657.913	-703.2424	942.707	730.1568	-723.7029	980.0454	627.9128	-710.0031	1088.693	506.7785	-584.4836	1083.2004	516.1748	-695.9731	1129.7843	398.7293	-723.1708	1052.9155	370.5321	-714.6612	1093.7288	268.4835	-710.3253	1231.6624	94.9347	-720.5621	1258.2517	120.365	-626.032	1194.9939	30.6888	-662.3081	1350.1353	101.8803	-743.9193	1382.148	135.6476	-646.6973	957.3438	1439.7419	-396.8017	890.8867	1427.6268	-706.5795	880.5629	1475.2461	-547.5099	811.9832	1148.7316	-535.1787	1002.8773	1362.6222	-562.5862	1018.0431	1221.6616	-552.5574	800.3724	1388.4791	-447.2395
2258	22.57	966.4465	1031.3688	-397.4053	777.5878	1039.9416	-498.8499	770.3191	1033.6511	-544.062	775.3181	1037.2469	-593.9977	951.8168	1025.1105	-693.9642	890.6095	703.5137	-383.8432	811.7566	717.6537	-369.0133	790.6075	610.4392	-385.8839	781.1517	489.0775	-516.9574	782.2586	489.3962	-400.2515	721.1095	330.4467	-399.4818	676.0402	229.2309	-420.6186	645.3592	363.0692	-385.7163	604.1139	257.914	-399.5702	551.5873	103.8395	-413.0014	591.0903	114.5089	-507.0012	483.2391	80.9288	-470.0854	651.8546	37.4557	-384.3383	697.6824	37.0684	-474.9636	1022.6387	758.8932	-710.4034	1057.3678	656.029	-702.9806	945.7546	728.3229	-724.7062	982.8486	626.1219	-710.1078	1090.1979	505.9364	-583.9571	1084.8859	514.4346	-695.0587	1131.1007	396.182	-721.7047	1054.3191	367.9527	-712.4908	1095.3052	266.0236	-707.3228	1233.3245	93.2174	-716.8317	1260.4009	119.2568	-622.4199	1197.0391	29.5836	-657.879	1351.4683	100.2165	-741.0167	1384.0845	134.6108	-644.2158	957.9883	1437.5367	-398.6676	891.4943	1425.2539	-708.4758	881.0336	1472.9282	-549.2797	813.2948	1146.1918	-536.886	1003.6141	1360.4442	-564.3435	1019.1013	1219.4414	-554.2431	801.0482	1386.0269	-448.9503
